<svg id="visual" viewBox="0 0 960 540" width="960" height="540" xmlns="http://www.w3.org/2000/svg" xmlns:xlink="http://www.w3.org/1999/xlink" version="1.1"><rect x="0" y="0" width="960" height="540" fill="#6600FF"></rect><defs><linearGradient id="grad1_0" x1="43.8%" y1="0%" x2="100%" y2="100%"><stop offset="14.444444444444446%" stop-color="#6600ff" stop-opacity="1"></stop><stop offset="85.55555555555554%" stop-color="#6600ff" stop-opacity="1"></stop></linearGradient></defs><defs><linearGradient id="grad2_0" x1="0%" y1="0%" x2="56.3%" y2="100%"><stop offset="14.444444444444446%" stop-color="#6600ff" stop-opacity="1"></stop><stop offset="85.55555555555554%" stop-color="#6600ff" stop-opacity="1"></stop></linearGradient></defs><g transform="translate(960, 0)"><path d="M0 486C-46.6 442.9 -93.3 399.9 -159.2 384.3C-225.1 368.8 -310.4 380.8 -343.7 343.7C-376.9 306.5 -358.2 220.1 -373.2 154.6C-388.3 89.1 -437.2 44.6 -486 0L0 0Z" fill="#8270f7"></path></g><g transform="translate(0, 540)"><path d="M0 -486C72.3 -485.5 144.5 -485 183.7 -443.5C222.9 -401.9 229 -319.2 275.1 -275.1C321.1 -230.9 407.2 -225.4 449 -186C490.8 -146.6 488.4 -73.3 486 0L0 0Z" fill="#8270f7"></path></g></svg>